# xmcd
#
# Track frame offsets: 
#        150
#        10548
#        21116
#        36274
#        48982
#        67861
#        87469
#        96861
#        110088
#        123654
#        138606
#        155357
#
# Disc length: 2199 seconds
#
# Revision: 1
# Processed by: cddbd v1.5.2PL0 Copyright (c) Steve Scherf et al.
# Submitted via: ExactAudioCopy v0.99pb5
#
DISCID=9b08950c
DTITLE=Fred Eaglesmith - Standard
DYEAR=2017
DGENRE=Folk-Rock
TTITLE0=Twin City Mini
TTITLE1=At Your Door
TTITLE2=Flames
TTITLE3=Old Machine
TTITLE4=Jenny Smith
TTITLE5=Tom Turkey
TTITLE6=Miss Mary Jane
TTITLE7=Thermostat
TTITLE8=Steam
TTITLE9=Off the Dam
TTITLE10=Watertown
TTITLE11=Mr. Rainbow
EXTD=
EXTT0=
EXTT1=
EXTT2=
EXTT3=
EXTT4=
EXTT5=
EXTT6=
EXTT7=
EXTT8=
EXTT9=
EXTT10=
EXTT11=
PLAYORDER=
